# xmcd
#
# Track frame offsets:
#	150
#	15375
#	32172
#	51820
#	68769
#	87592
#	101768
#	119322
#	134393
#	153813
#	173460
#	190110
#
# Disc length: 2734 seconds
#
# Revision: 0
# Processed by: cddbd v1.5.2PL0 Copyright (c) Steve Scherf et al.
# Submitted via: EasyCDDAExtractor 16.0.6.1
#
DISCID=920aac0c
DTITLE=Various Artist - Fool Me
DYEAR=2555
DGENRE=
TTITLE0=อัสนี and วสันต์ - เธอปันใจ
TTITLE1=ไมโคร - รุนแรงเหลือเกิน
TTITLE2=ปั่น ไพบูลย์เกียรติ - น้องทำเกินไป
TTITLE3=บิลลี่ โอแกน - ฟ้าคงสะใจ
TTITLE4=นูโว - โง่งมงาย
TTITLE5=ธงไชย แมคอินไตย - หมอกหรือควัน
TTITLE6=ธเนศ วรากุลนุเคราะห์ - ไม่เจอไม่จำ
TTITLE7=แหวน ฐิติมา - เจ็บกระดองใจ
TTITLE8=ใหม่ เจริญปุระ - ควักหัวใจ
TTITLE9=เรวัต พุทธินันทน์ - ดอกไม้พลาสติก
TTITLE10=แหวน ฐิติมา - สองมือ สองตา หนึ่งใจ
TTITLE11=อำพล ลำพูน - เสียมั้ย
EXTD=
EXTT0=
EXTT1=
EXTT2=
EXTT3=
EXTT4=
EXTT5=
EXTT6=
EXTT7=
EXTT8=
EXTT9=
EXTT10=
EXTT11=
PLAYORDER=
